<?xml version="1.0" encoding="UTF-8" standalone="no"?>
<!-- Created with Inkscape (http://www.inkscape.org/) -->

<svg
   xmlns:dc="http://purl.org/dc/elements/1.1/"
   xmlns:cc="http://creativecommons.org/ns#"
   xmlns:rdf="http://www.w3.org/1999/02/22-rdf-syntax-ns#"
   xmlns:svg="http://www.w3.org/2000/svg"
   xmlns="http://www.w3.org/2000/svg"
   xmlns:sodipodi="http://sodipodi.sourceforge.net/DTD/sodipodi-0.dtd"
   xmlns:inkscape="http://www.inkscape.org/namespaces/inkscape"
   width="24"
   height="24"
   viewBox="0 0 24 24"
   id="svg2"
   version="1.1"
   inkscape:version="0.91 r13725"
   sodipodi:docname="app-library.svg">
  <defs
     id="defs4" />
  <sodipodi:namedview
     id="base"
     pagecolor="#ffffff"
     bordercolor="#666666"
     borderopacity="1.0"
     inkscape:pageopacity="0.0"
     inkscape:pageshadow="2"
     inkscape:zoom="32"
     inkscape:cx="8.7969861"
     inkscape:cy="13.810701"
     inkscape:document-units="px"
     inkscape:current-layer="layer1"
     showgrid="true"
     units="px"
     showguides="true"
     inkscape:guide-bbox="true"
     inkscape:window-width="1920"
     inkscape:window-height="1006"
     inkscape:window-x="0"
     inkscape:window-y="0"
     inkscape:window-maximized="1"
     inkscape:object-nodes="true"
     inkscape:snap-intersection-paths="true"
     inkscape:object-paths="true"
     inkscape:snap-bbox="true"
     inkscape:bbox-nodes="true"
     inkscape:bbox-paths="true"
     inkscape:snap-global="false">
    <inkscape:grid
       type="xygrid"
       id="grid4136"
       empspacing="4"
       dotted="true" />
    <sodipodi:guide
       position="2,12"
       orientation="1,0"
       id="guide4138" />
    <sodipodi:guide
       position="22,12"
       orientation="1,0"
       id="guide4140" />
    <sodipodi:guide
       position="21,22"
       orientation="0,1"
       id="guide4142" />
    <sodipodi:guide
       position="21,2"
       orientation="0,1"
       id="guide4144" />
    <sodipodi:guide
       position="13,13"
       orientation="-0.70710678,0.70710678"
       id="guide4146"
       inkscape:label=""
       inkscape:color="rgb(197,197,222)" />
    <sodipodi:guide
       position="10,14"
       orientation="0.70710678,0.70710678"
       id="guide4148"
       inkscape:label=""
       inkscape:color="rgb(197,197,222)" />
    <sodipodi:guide
       position="12,12"
       orientation="1,0"
       id="guide4150"
       inkscape:label=""
       inkscape:color="rgb(197,197,222)" />
    <sodipodi:guide
       position="12,12"
       orientation="0,1"
       id="guide4152"
       inkscape:label=""
       inkscape:color="rgb(197,197,222)" />
    <sodipodi:guide
       position="4,11"
       orientation="1,0"
       id="guide4247"
       inkscape:label=""
       inkscape:color="rgb(163,192,115)" />
    <sodipodi:guide
       position="20.064155,16.263456"
       orientation="1,0"
       id="guide4249"
       inkscape:label=""
       inkscape:color="rgb(163,192,115)" />
    <sodipodi:guide
       position="10,20"
       orientation="1.2246468e-16,-1"
       id="guide4251"
       inkscape:label=""
       inkscape:color="rgb(163,192,115)" />
    <sodipodi:guide
       position="8,4"
       orientation="0,1"
       id="guide4253"
       inkscape:label=""
       inkscape:color="rgb(163,192,115)" />
    <sodipodi:guide
       position="8.0433396,14.937631"
       orientation="1,0"
       id="guide4255"
       inkscape:label=""
       inkscape:color="rgb(197,197,222)" />
    <sodipodi:guide
       position="16,14"
       orientation="1,0"
       id="guide4257"
       inkscape:label=""
       inkscape:color="rgb(197,197,222)" />
    <sodipodi:guide
       position="16,16"
       orientation="0,1"
       id="guide4259"
       inkscape:label=""
       inkscape:color="rgb(197,197,222)" />
    <sodipodi:guide
       position="18,8"
       orientation="0,1"
       id="guide4261"
       inkscape:label=""
       inkscape:color="rgb(197,197,222)" />
  </sodipodi:namedview>
  <metadata
     id="metadata7">
    <rdf:RDF>
      <cc:Work
         rdf:about="">
        <dc:format>image/svg+xml</dc:format>
        <dc:type
           rdf:resource="http://purl.org/dc/dcmitype/StillImage" />
        <dc:title />
      </cc:Work>
    </rdf:RDF>
  </metadata>
  <g
     inkscape:label="Layer 1"
     inkscape:groupmode="layer"
     id="layer1"
     transform="translate(0,-1028.3622)">
    <path
       style="opacity:1;fill:#000000;fill-opacity:1;stroke:none;stroke-width:4;stroke-linecap:round;stroke-miterlimit:4;stroke-dasharray:none;stroke-dashoffset:0;stroke-opacity:1"
       d="m 8.5605469,4.0292969 0,0.00391 C 5.5196686,3.9410031 2,5.125 2,5.125 l 0,13.129977 c 9.143206,-2.3686 10,0.785156 10,0.785156 l 1.023438,0 0,-13.540133 0.726562,0 0,15.883883 1.03125,-1.4375 1,1.4375 0,-14.915133 c 0,-1.125 0,-1.37495 -1.03125,-1.53125 C 13.71875,4.7813 12.25,5.5 12.25,5.5 l -0.4375,0 -0.02344,0 c 0,0 0.0094,-0.00977 0.0098,-0.00977 C 11.11178,4.68313 9.938634,4.0710925 8.5605789,4.0292925 Z M 16.708455,5.5 l 0,13.540133 5.291549,0 L 22,5.5 Z M 5.3518303,9.9803143 c 0.9664712,0.0113 2.0118778,0.8721527 2.578125,2.1269527 0.2694635,0.5982 0.4059941,1.237625 0.3925781,1.828125 L 9.676049,12.579923 9.3049553,12.20883 l 0.9492187,-0.947266 0.474609,0.472656 0.191407,0.19336 -2.6875003,2.689453 c -0.1493028,0.5817 -0.4750286,1.01129 -0.9199219,1.21289 -1.0532194,0.4753 -2.4839857,-0.4203 -3.1972657,-2 -0.7133184,-1.5801 -0.4382334,-3.247256 0.6152344,-3.722656 0.1907486,-0.0866 0.4006294,-0.1269527 0.6210938,-0.1269527 z M 3.0920647,12.76547 c 0.5294248,1.672683 1.2593402,2.466638 2.0917968,3.117188 l 0,0.07031 c 1.334e-4,0 1.334e-4,0.01172 0,0.01172 l 0,0.02539 -0.00195,0 c -0.011094,0.063 -0.059947,0.109093 -0.1230469,0.121093 l -0.011719,0 -0.00977,0 -1.578125,0 c -0.011725,6e-4 -0.023431,6e-4 -0.035156,0 -0.012651,0 -0.024848,-0.01172 -0.037109,-0.01172 -0.011949,0 -0.023657,-0.01172 -0.035156,-0.01172 -0.011909,0 -0.023615,-0.01172 -0.035156,-0.01172 -0.011251,0 -0.022465,-0.01563 -0.033203,-0.01563 -0.010587,-0.011 -0.02132,-0.01148 -0.03125,-0.02148 -0.00989,-0.011 -0.018174,-0.01148 -0.027344,-0.02149 -0.00999,-0.011 -0.020237,-0.01539 -0.029297,-0.02539 -0.00849,-0.011 -0.015807,-0.01734 -0.023437,-0.02734 -0.00786,-0.012 -0.016637,-0.02125 -0.023437,-0.03125 -0.00636,-0.011 -0.012208,-0.02125 -0.017578,-0.03125 -0.00493,-0.011 -0.00786,-0.0183 -0.011719,-0.0293 -0.005,-0.011 -0.00988,-0.02416 -0.013672,-0.03516 -0.00277,-0.011 -0.00619,-0.02416 -0.00781,-0.03516 -0.00284,-0.012 -0.00431,-0.02511 -0.00586,-0.03711 -3.163e-4,-0.011 -3.165e-4,-0.01735 0,-0.02734 l 0,-2.353516 z m 4.7848884,5.204351 c -1.9524978,-0.022 -4.0668934,0.382512 -5.8652343,1.070312 l 9.1914062,0 C 10.647129,18.301933 9.4084702,18.03912 7.8769531,17.969821 Z"
       transform="translate(0,1028.3622)"
       id="path4499"
       inkscape:connector-curvature="0"
       sodipodi:nodetypes="cccccccccccscccccccccccccccccccccccccccccccccccsssccccccccccccccccccc" />
  </g>
</svg>
