<?xml version="1.0" encoding="UTF-8" standalone="no"?>
<!-- Created with Inkscape (http://www.inkscape.org/) -->

<svg
   xmlns:dc="http://purl.org/dc/elements/1.1/"
   xmlns:cc="http://creativecommons.org/ns#"
   xmlns:rdf="http://www.w3.org/1999/02/22-rdf-syntax-ns#"
   xmlns:svg="http://www.w3.org/2000/svg"
   xmlns="http://www.w3.org/2000/svg"
   xmlns:sodipodi="http://sodipodi.sourceforge.net/DTD/sodipodi-0.dtd"
   xmlns:inkscape="http://www.inkscape.org/namespaces/inkscape"
   width="24"
   height="24"
   viewBox="0 0 24 24"
   id="svg2"
   version="1.1"
   inkscape:version="0.91 r13725"
   sodipodi:docname="app-files.svg">
  <defs
     id="defs4" />
  <sodipodi:namedview
     id="base"
     pagecolor="#ffffff"
     bordercolor="#666666"
     borderopacity="1.0"
     inkscape:pageopacity="0.0"
     inkscape:pageshadow="2"
     inkscape:zoom="16"
     inkscape:cx="13.042037"
     inkscape:cy="2.0911326"
     inkscape:document-units="px"
     inkscape:current-layer="layer1"
     showgrid="true"
     units="px"
     showguides="true"
     inkscape:guide-bbox="true"
     inkscape:window-width="1920"
     inkscape:window-height="1006"
     inkscape:window-x="0"
     inkscape:window-y="0"
     inkscape:window-maximized="1"
     inkscape:object-nodes="true"
     inkscape:snap-intersection-paths="true"
     inkscape:object-paths="true"
     inkscape:snap-bbox="true"
     inkscape:bbox-nodes="true"
     inkscape:bbox-paths="true"
     inkscape:snap-global="true">
    <inkscape:grid
       type="xygrid"
       id="grid4136"
       empspacing="4"
       dotted="true" />
    <sodipodi:guide
       position="2,12"
       orientation="1,0"
       id="guide4138" />
    <sodipodi:guide
       position="22,12"
       orientation="1,0"
       id="guide4140" />
    <sodipodi:guide
       position="21,22"
       orientation="0,1"
       id="guide4142" />
    <sodipodi:guide
       position="21,2"
       orientation="0,1"
       id="guide4144" />
    <sodipodi:guide
       position="13,13"
       orientation="-0.70710678,0.70710678"
       id="guide4146"
       inkscape:label=""
       inkscape:color="rgb(197,197,222)" />
    <sodipodi:guide
       position="10,14"
       orientation="0.70710678,0.70710678"
       id="guide4148"
       inkscape:label=""
       inkscape:color="rgb(197,197,222)" />
    <sodipodi:guide
       position="12,12"
       orientation="1,0"
       id="guide4150"
       inkscape:label=""
       inkscape:color="rgb(197,197,222)" />
    <sodipodi:guide
       position="12,12"
       orientation="0,1"
       id="guide4152"
       inkscape:label=""
       inkscape:color="rgb(197,197,222)" />
    <sodipodi:guide
       position="4,11"
       orientation="1,0"
       id="guide4247"
       inkscape:label=""
       inkscape:color="rgb(163,192,115)" />
    <sodipodi:guide
       position="20.064155,16.263456"
       orientation="1,0"
       id="guide4249"
       inkscape:label=""
       inkscape:color="rgb(163,192,115)" />
    <sodipodi:guide
       position="10,20"
       orientation="1.2246468e-16,-1"
       id="guide4251"
       inkscape:label=""
       inkscape:color="rgb(163,192,115)" />
    <sodipodi:guide
       position="8,4"
       orientation="0,1"
       id="guide4253"
       inkscape:label=""
       inkscape:color="rgb(163,192,115)" />
    <sodipodi:guide
       position="8.0433396,14.937631"
       orientation="1,0"
       id="guide4255"
       inkscape:label=""
       inkscape:color="rgb(197,197,222)" />
    <sodipodi:guide
       position="16,14"
       orientation="1,0"
       id="guide4257"
       inkscape:label=""
       inkscape:color="rgb(197,197,222)" />
    <sodipodi:guide
       position="16,16"
       orientation="0,1"
       id="guide4259"
       inkscape:label=""
       inkscape:color="rgb(197,197,222)" />
    <sodipodi:guide
       position="18,8"
       orientation="0,1"
       id="guide4261"
       inkscape:label=""
       inkscape:color="rgb(197,197,222)" />
  </sodipodi:namedview>
  <metadata
     id="metadata7">
    <rdf:RDF>
      <cc:Work
         rdf:about="">
        <dc:format>image/svg+xml</dc:format>
        <dc:type
           rdf:resource="http://purl.org/dc/dcmitype/StillImage" />
        <dc:title />
      </cc:Work>
    </rdf:RDF>
  </metadata>
  <g
     inkscape:label="Layer 1"
     inkscape:groupmode="layer"
     id="layer1"
     transform="translate(0,-1028.3622)">
    <path
       style="opacity:1;fill:#000000;fill-opacity:1;stroke:none;stroke-opacity:1"
       d="m 7.9214445,1033.3265 3.6791115,2.5335 7.925988,0 c 0.487954,0 0.905065,0.3773 0.933655,0.8454 l 0.5501,9.0084 0.191778,-2.2508 0.07319,-0.8453 0.721691,-8.4458 c 0.04004,-0.468 -0.319531,-0.8454 -0.807487,-0.8454 l -13.2680142,0 z m -5.0922128,0.5501 c -0.4879547,0 -0.8562648,0.3776 -0.8276738,0.8454 l 0.1539272,2.5335 0.050469,0.8453 0.5172962,8.4458 c 0.028591,0.468 0.4457016,0.8454 0.9336563,0.8454 l 15.8519716,0 c 0.487956,0 0.85879,-0.3774 0.830199,-0.8454 l -0.567765,-9.2911 c -0.0286,-0.468 -0.4457,-0.8429 -0.933656,-0.8429 l -7.925986,0 -3.6765881,-2.536 -0.8831887,0 -3.5226604,0 z m 4.2973432,4.3705 a 3.8608884,2.5739257 65.704427 0 1 3.1693851,2.6169 3.8608884,2.5739257 65.704427 0 1 0.484492,2.2483 l 1.665442,-1.6655 -0.45926,-0.4592 1.168334,-1.1658 0.585427,0.5829 0.2372,0.2372 -3.308173,3.3082 a 3.8608884,2.5739257 65.704427 0 1 -1.1304807,1.4913 3.8608884,2.5739257 65.704427 0 1 -3.9339741,-2.4603 3.8608884,2.5739257 65.704427 0 1 0.7570187,-4.5775 3.8608884,2.5739257 65.704427 0 1 0.764589,-0.1565 z m -2.7807821,3.4193 c 0.6512858,2.0592 1.5494985,3.0351 2.5738636,3.8356 l 0,0.088 c 1.641e-4,0.018 1.645e-4,0.018 0,0.018 l 0,0.031 -0.00252,0 c -0.013644,0.077 -0.073787,0.1308 -0.1514038,0.1489 l -0.015141,0 -0.012618,0 -1.937968,0 a 0.45205629,0.45205629 0 0 1 -0.045422,0 0.45205629,0.45205629 0 0 1 -0.045422,0 0.45205629,0.45205629 0 0 1 -0.042898,-0.02 0.45205629,0.45205629 0 0 1 -0.042899,-0.018 0.45205629,0.45205629 0 0 1 -0.042898,-0.018 0.45205629,0.45205629 0 0 1 -0.037852,-0.025 0.45205629,0.45205629 0 0 1 -0.035328,-0.028 0.45205629,0.45205629 0 0 1 -0.032805,-0.033 0.45205629,0.45205629 0 0 1 -0.030281,-0.033 0.45205629,0.45205629 0 0 1 -0.025233,-0.035 0.45205629,0.45205629 0 0 1 -0.02271,-0.04 0.45205629,0.45205629 0 0 1 -0.017663,-0.04 0.45205629,0.45205629 0 0 1 -0.01514,-0.043 0.45205629,0.45205629 0 0 1 -0.010087,-0.046 0.45205629,0.45205629 0 0 1 -0.00505,-0.046 0.45205629,0.45205629 0 0 1 -0.00252,-0.033 l 0,-2.8943 0,-0.7696 z"
       id="rect5069"
       inkscape:connector-curvature="0" />
  </g>
</svg>
