<?xml version="1.0" encoding="UTF-8" standalone="no"?>
<!-- Created with Inkscape (http://www.inkscape.org/) -->

<svg
   xmlns:dc="http://purl.org/dc/elements/1.1/"
   xmlns:cc="http://creativecommons.org/ns#"
   xmlns:rdf="http://www.w3.org/1999/02/22-rdf-syntax-ns#"
   xmlns:svg="http://www.w3.org/2000/svg"
   xmlns="http://www.w3.org/2000/svg"
   xmlns:sodipodi="http://sodipodi.sourceforge.net/DTD/sodipodi-0.dtd"
   xmlns:inkscape="http://www.inkscape.org/namespaces/inkscape"
   width="24"
   height="24"
   viewBox="0 0 24 24"
   id="svg2"
   version="1.1"
   inkscape:version="0.91 r13725"
   sodipodi:docname="help.svg">
  <defs
     id="defs4" />
  <sodipodi:namedview
     id="base"
     pagecolor="#ffffff"
     bordercolor="#666666"
     borderopacity="1.0"
     inkscape:pageopacity="0.0"
     inkscape:pageshadow="2"
     inkscape:zoom="22.627417"
     inkscape:cx="20.992515"
     inkscape:cy="16.081185"
     inkscape:document-units="px"
     inkscape:current-layer="layer1"
     showgrid="true"
     units="px"
     showguides="true"
     inkscape:guide-bbox="true"
     inkscape:window-width="1920"
     inkscape:window-height="1007"
     inkscape:window-x="0"
     inkscape:window-y="0"
     inkscape:window-maximized="1"
     inkscape:object-nodes="true"
     inkscape:snap-intersection-paths="true"
     inkscape:object-paths="true"
     inkscape:snap-bbox="true"
     inkscape:bbox-nodes="true"
     inkscape:bbox-paths="true">
    <inkscape:grid
       type="xygrid"
       id="grid4136"
       empspacing="4"
       dotted="true" />
    <sodipodi:guide
       position="2,12"
       orientation="1,0"
       id="guide4138" />
    <sodipodi:guide
       position="22,12"
       orientation="1,0"
       id="guide4140" />
    <sodipodi:guide
       position="21,22"
       orientation="0,1"
       id="guide4142" />
    <sodipodi:guide
       position="21,2"
       orientation="0,1"
       id="guide4144" />
    <sodipodi:guide
       position="13,13"
       orientation="-0.70710678,0.70710678"
       id="guide4146"
       inkscape:label=""
       inkscape:color="rgb(197,197,222)" />
    <sodipodi:guide
       position="10,14"
       orientation="0.70710678,0.70710678"
       id="guide4148"
       inkscape:label=""
       inkscape:color="rgb(197,197,222)" />
    <sodipodi:guide
       position="12,12"
       orientation="1,0"
       id="guide4150"
       inkscape:label=""
       inkscape:color="rgb(197,197,222)" />
    <sodipodi:guide
       position="12,12"
       orientation="0,1"
       id="guide4152"
       inkscape:label=""
       inkscape:color="rgb(197,197,222)" />
    <sodipodi:guide
       position="4,11"
       orientation="1,0"
       id="guide4247"
       inkscape:label=""
       inkscape:color="rgb(163,192,115)" />
    <sodipodi:guide
       position="20,11"
       orientation="1,0"
       id="guide4249"
       inkscape:label=""
       inkscape:color="rgb(163,192,115)" />
    <sodipodi:guide
       position="10,20"
       orientation="1.2246468e-16,-1"
       id="guide4251"
       inkscape:label=""
       inkscape:color="rgb(163,192,115)" />
    <sodipodi:guide
       position="8,4"
       orientation="0,1"
       id="guide4253"
       inkscape:label=""
       inkscape:color="rgb(163,192,115)" />
    <sodipodi:guide
       position="8,13"
       orientation="1,0"
       id="guide4255"
       inkscape:label=""
       inkscape:color="rgb(197,197,222)" />
    <sodipodi:guide
       position="16,14"
       orientation="1,0"
       id="guide4257"
       inkscape:label=""
       inkscape:color="rgb(197,197,222)" />
    <sodipodi:guide
       position="16,16"
       orientation="0,1"
       id="guide4259"
       inkscape:label=""
       inkscape:color="rgb(197,197,222)" />
    <sodipodi:guide
       position="18,8"
       orientation="0,1"
       id="guide4261"
       inkscape:label=""
       inkscape:color="rgb(197,197,222)" />
  </sodipodi:namedview>
  <metadata
     id="metadata7">
    <rdf:RDF>
      <cc:Work
         rdf:about="">
        <dc:format>image/svg+xml</dc:format>
        <dc:type
           rdf:resource="http://purl.org/dc/dcmitype/StillImage" />
        <dc:title></dc:title>
      </cc:Work>
    </rdf:RDF>
  </metadata>
  <g
     inkscape:label="Layer 1"
     inkscape:groupmode="layer"
     id="layer1"
     transform="translate(0,-1028.3622)">
    <path
       style="opacity:1;fill:#000000;fill-opacity:1;stroke:none;stroke-width:1;stroke-linecap:round;stroke-miterlimit:4;stroke-dasharray:none;stroke-dashoffset:0;stroke-opacity:1"
       d="M 12 2 A 10 10 0 0 0 2 12 A 10 10 0 0 0 12 22 A 10 10 0 0 0 22 12 A 10 10 0 0 0 12 2 z M 12 6 A 4 4 0 0 1 16 10 A 4 4 0 0 1 13 13.867188 L 13 15 L 11 15 L 11 14 L 11 13 A 1 1 0 0 1 11.005859 12.900391 A 1 1 0 0 1 11.019531 12.800781 A 1 1 0 0 1 11.044922 12.703125 A 1 1 0 0 1 11.078125 12.609375 A 1 1 0 0 1 11.123047 12.519531 A 1 1 0 0 1 11.173828 12.433594 A 1 1 0 0 1 11.234375 12.353516 A 1 1 0 0 1 11.302734 12.28125 A 1 1 0 0 1 11.378906 12.216797 A 1 1 0 0 1 11.458984 12.15625 A 1 1 0 0 1 11.546875 12.107422 A 1 1 0 0 1 11.636719 12.066406 A 1 1 0 0 1 11.732422 12.035156 A 1 1 0 0 1 11.830078 12.011719 A 1 1 0 0 1 11.929688 12 A 1 1 0 0 1 12 12 A 2 2 0 0 0 14 10 A 2 2 0 0 0 12 8 A 2 2 0 0 0 10 10 L 8 10 A 4 4 0 0 1 12 6 z M 11 16 L 13 16 L 13 18 L 11 18 L 11 16 z "
       transform="translate(0,1028.3622)"
       id="path9890" />
  </g>
</svg>
