<?xml version="1.0" encoding="UTF-8" standalone="no"?>
<!-- Created with Inkscape (http://www.inkscape.org/) -->

<svg
   xmlns:dc="http://purl.org/dc/elements/1.1/"
   xmlns:cc="http://creativecommons.org/ns#"
   xmlns:rdf="http://www.w3.org/1999/02/22-rdf-syntax-ns#"
   xmlns:svg="http://www.w3.org/2000/svg"
   xmlns="http://www.w3.org/2000/svg"
   xmlns:sodipodi="http://sodipodi.sourceforge.net/DTD/sodipodi-0.dtd"
   xmlns:inkscape="http://www.inkscape.org/namespaces/inkscape"
   width="24"
   height="24"
   viewBox="0 0 24 24"
   id="svg2"
   version="1.1"
   inkscape:version="0.91 r13725"
   sodipodi:docname="network-bridge.svg">
  <defs
     id="defs4" />
  <sodipodi:namedview
     id="base"
     pagecolor="#ffffff"
     bordercolor="#666666"
     borderopacity="1.0"
     inkscape:pageopacity="0.0"
     inkscape:pageshadow="2"
     inkscape:zoom="16"
     inkscape:cx="1.5211444"
     inkscape:cy="6.2181351"
     inkscape:document-units="px"
     inkscape:current-layer="layer1"
     showgrid="true"
     units="px"
     showguides="true"
     inkscape:guide-bbox="true"
     inkscape:window-width="1920"
     inkscape:window-height="1006"
     inkscape:window-x="0"
     inkscape:window-y="0"
     inkscape:window-maximized="1"
     inkscape:object-nodes="true"
     inkscape:snap-intersection-paths="true"
     inkscape:object-paths="true"
     inkscape:snap-bbox="true"
     inkscape:snap-object-midpoints="true"
     inkscape:snap-center="true"
     inkscape:snap-bbox-midpoints="true"
     inkscape:snap-bbox-edge-midpoints="true"
     inkscape:bbox-nodes="true">
    <inkscape:grid
       type="xygrid"
       id="grid4136"
       empspacing="4"
       dotted="true" />
    <sodipodi:guide
       position="2,12"
       orientation="1,0"
       id="guide4138" />
    <sodipodi:guide
       position="22,12"
       orientation="1,0"
       id="guide4140" />
    <sodipodi:guide
       position="21,22"
       orientation="0,1"
       id="guide4142" />
    <sodipodi:guide
       position="21,2"
       orientation="0,1"
       id="guide4144" />
    <sodipodi:guide
       position="10,14"
       orientation="0.70710678,0.70710678"
       id="guide4148"
       inkscape:label=""
       inkscape:color="rgb(197,197,222)" />
    <sodipodi:guide
       position="12,12"
       orientation="1,0"
       id="guide4150"
       inkscape:label=""
       inkscape:color="rgb(197,197,222)" />
    <sodipodi:guide
       position="10,12"
       orientation="0,1"
       id="guide4152"
       inkscape:label=""
       inkscape:color="rgb(197,197,222)" />
    <sodipodi:guide
       position="4,11"
       orientation="1,0"
       id="guide4247"
       inkscape:label=""
       inkscape:color="rgb(163,192,115)" />
    <sodipodi:guide
       position="20,11"
       orientation="1,0"
       id="guide4249"
       inkscape:label=""
       inkscape:color="rgb(163,192,115)" />
    <sodipodi:guide
       position="10,20"
       orientation="0,1"
       id="guide4251"
       inkscape:label=""
       inkscape:color="rgb(163,192,115)" />
    <sodipodi:guide
       position="8,4"
       orientation="0,1"
       id="guide4253"
       inkscape:label=""
       inkscape:color="rgb(163,192,115)" />
    <sodipodi:guide
       position="8,13"
       orientation="1,0"
       id="guide4255"
       inkscape:label=""
       inkscape:color="rgb(197,197,222)" />
    <sodipodi:guide
       position="16,14"
       orientation="1,0"
       id="guide4257"
       inkscape:label=""
       inkscape:color="rgb(197,197,222)" />
    <sodipodi:guide
       position="16,16"
       orientation="0,1"
       id="guide4259"
       inkscape:label=""
       inkscape:color="rgb(197,197,222)" />
    <sodipodi:guide
       position="18,8"
       orientation="0,1"
       id="guide4261"
       inkscape:label=""
       inkscape:color="rgb(197,197,222)" />
  </sodipodi:namedview>
  <metadata
     id="metadata7">
    <rdf:RDF>
      <cc:Work
         rdf:about="">
        <dc:format>image/svg+xml</dc:format>
        <dc:type
           rdf:resource="http://purl.org/dc/dcmitype/StillImage" />
        <dc:title></dc:title>
      </cc:Work>
    </rdf:RDF>
  </metadata>
  <g
     inkscape:label="Layer 1"
     inkscape:groupmode="layer"
     id="layer1"
     transform="translate(0,-1028.3622)">
    <path
       style="opacity:1;fill:#000000;fill-opacity:1;stroke:none;stroke-width:4;stroke-linecap:round;stroke-miterlimit:4;stroke-dasharray:none;stroke-dashoffset:0;stroke-opacity:1"
       d="M 11 4 C 10.44599 4 10 4.4459904 10 5 L 10 7 C 10 7.5540096 10.44599 8 11 8 L 11 11 L 7 11 L 6 11 A 1 1 0 0 0 5.9003906 11.005859 A 1 1 0 0 0 5.8007812 11.019531 A 1 1 0 0 0 5.7050781 11.044922 A 1 1 0 0 0 5.6113281 11.078125 A 1 1 0 0 0 5.5214844 11.123047 A 1 1 0 0 0 5.4355469 11.173828 A 1 1 0 0 0 5.3554688 11.234375 A 1 1 0 0 0 5.2832031 11.302734 A 1 1 0 0 0 5.2167969 11.378906 A 1 1 0 0 0 5.1582031 11.458984 A 1 1 0 0 0 5.109375 11.546875 A 1 1 0 0 0 5.0683594 11.636719 A 1 1 0 0 0 5.0371094 11.732422 A 1 1 0 0 0 5.0136719 11.830078 A 1 1 0 0 0 5.0019531 11.929688 A 1 1 0 0 0 5 12 L 5 13 L 5 16 C 4.4459904 16 4 16.44599 4 17 L 4 19 C 4 19.55401 4.4459904 20 5 20 L 7 20 C 7.5540096 20 8 19.55401 8 19 L 8 17 C 8 16.44599 7.5540096 16 7 16 L 7 13 L 11 13 L 11 16 C 10.44599 16 10 16.44599 10 17 L 10 19 C 10 19.55401 10.44599 20 11 20 L 13 20 C 13.55401 20 14 19.55401 14 19 L 14 17 C 14 16.44599 13.55401 16 13 16 L 13 13 L 17 13 L 17 16 C 16.44599 16 16 16.44599 16 17 L 16 19 C 16 19.55401 16.44599 20 17 20 L 19 20 C 19.55401 20 20 19.55401 20 19 L 20 17 C 20 16.44599 19.55401 16 19 16 L 19 12 A 1 1 0 0 0 18.994141 11.900391 A 1 1 0 0 0 18.980469 11.800781 A 1 1 0 0 0 18.955078 11.705078 A 1 1 0 0 0 18.921875 11.611328 A 1 1 0 0 0 18.876953 11.521484 A 1 1 0 0 0 18.826172 11.435547 A 1 1 0 0 0 18.765625 11.355469 A 1 1 0 0 0 18.697266 11.283203 A 1 1 0 0 0 18.621094 11.216797 A 1 1 0 0 0 18.541016 11.158203 A 1 1 0 0 0 18.453125 11.109375 A 1 1 0 0 0 18.363281 11.068359 A 1 1 0 0 0 18.267578 11.037109 A 1 1 0 0 0 18.169922 11.013672 A 1 1 0 0 0 18.070312 11.001953 A 1 1 0 0 0 18 11 L 13 11 L 13 8 C 13.55401 8 14 7.5540096 14 7 L 14 5 C 14 4.4459904 13.55401 4 13 4 L 11 4 z "
       transform="translate(0,1028.3622)"
       id="path4211" />
  </g>
</svg>
