<?xml version="1.0" encoding="UTF-8" standalone="no"?>
<!-- Created with Inkscape (http://www.inkscape.org/) -->

<svg
   xmlns:dc="http://purl.org/dc/elements/1.1/"
   xmlns:cc="http://creativecommons.org/ns#"
   xmlns:rdf="http://www.w3.org/1999/02/22-rdf-syntax-ns#"
   xmlns:svg="http://www.w3.org/2000/svg"
   xmlns="http://www.w3.org/2000/svg"
   xmlns:sodipodi="http://sodipodi.sourceforge.net/DTD/sodipodi-0.dtd"
   xmlns:inkscape="http://www.inkscape.org/namespaces/inkscape"
   width="24"
   height="24"
   viewBox="0 0 24 24"
   id="svg2"
   version="1.1"
   inkscape:version="0.91 r13725"
   sodipodi:docname="outernet.svg">
  <defs
     id="defs4" />
  <sodipodi:namedview
     id="base"
     pagecolor="#ffffff"
     bordercolor="#666666"
     borderopacity="1.0"
     inkscape:pageopacity="0.0"
     inkscape:pageshadow="2"
     inkscape:zoom="22.627417"
     inkscape:cx="6.5077448"
     inkscape:cy="6.2680963"
     inkscape:document-units="px"
     inkscape:current-layer="layer1"
     showgrid="true"
     units="px"
     showguides="true"
     inkscape:guide-bbox="true"
     inkscape:window-width="1600"
     inkscape:window-height="817"
     inkscape:window-x="0"
     inkscape:window-y="0"
     inkscape:window-maximized="1"
     inkscape:object-nodes="true"
     inkscape:snap-intersection-paths="true"
     inkscape:object-paths="true"
     inkscape:snap-bbox="true"
     inkscape:bbox-nodes="true"
     inkscape:bbox-paths="true"
     inkscape:snap-smooth-nodes="true">
    <inkscape:grid
       type="xygrid"
       id="grid4136"
       empspacing="4"
       dotted="true" />
    <sodipodi:guide
       position="2,12"
       orientation="1,0"
       id="guide4138" />
    <sodipodi:guide
       position="22,12"
       orientation="1,0"
       id="guide4140" />
    <sodipodi:guide
       position="21,22"
       orientation="0,1"
       id="guide4142" />
    <sodipodi:guide
       position="21,2"
       orientation="0,1"
       id="guide4144" />
    <sodipodi:guide
       position="13,13"
       orientation="-0.70710678,0.70710678"
       id="guide4146"
       inkscape:label=""
       inkscape:color="rgb(197,197,222)" />
    <sodipodi:guide
       position="12,12"
       orientation="1,0"
       id="guide4150"
       inkscape:label=""
       inkscape:color="rgb(197,197,222)" />
    <sodipodi:guide
       position="12,12"
       orientation="0,1"
       id="guide4152"
       inkscape:label=""
       inkscape:color="rgb(197,197,222)" />
    <sodipodi:guide
       position="4,11"
       orientation="1,0"
       id="guide4247"
       inkscape:label=""
       inkscape:color="rgb(163,192,115)" />
    <sodipodi:guide
       position="20,11"
       orientation="1,0"
       id="guide4249"
       inkscape:label=""
       inkscape:color="rgb(163,192,115)" />
    <sodipodi:guide
       position="10,20"
       orientation="1.2246468e-16,-1"
       id="guide4251"
       inkscape:label=""
       inkscape:color="rgb(163,192,115)" />
    <sodipodi:guide
       position="2,4"
       orientation="0,1"
       id="guide4253"
       inkscape:label=""
       inkscape:color="rgb(163,192,115)" />
    <sodipodi:guide
       position="8,13"
       orientation="1,0"
       id="guide4255"
       inkscape:label=""
       inkscape:color="rgb(197,197,222)" />
    <sodipodi:guide
       position="16,14"
       orientation="1,0"
       id="guide4257"
       inkscape:label=""
       inkscape:color="rgb(197,197,222)" />
    <sodipodi:guide
       position="16,16"
       orientation="0,1"
       id="guide4259"
       inkscape:label=""
       inkscape:color="rgb(197,197,222)" />
    <sodipodi:guide
       position="18,8"
       orientation="0,1"
       id="guide4261"
       inkscape:label=""
       inkscape:color="rgb(197,197,222)" />
  </sodipodi:namedview>
  <metadata
     id="metadata7">
    <rdf:RDF>
      <cc:Work
         rdf:about="">
        <dc:format>image/svg+xml</dc:format>
        <dc:type
           rdf:resource="http://purl.org/dc/dcmitype/StillImage" />
        <dc:title />
      </cc:Work>
    </rdf:RDF>
  </metadata>
  <g
     inkscape:label="Layer 1"
     inkscape:groupmode="layer"
     id="layer1"
     transform="translate(0,-1028.3622)">
    <g
       style="font-style:normal;font-variant:normal;font-weight:normal;font-stretch:normal;font-size:4.10883141px;line-height:125%;font-family:'Brandon Text';-inkscape-font-specification:'Brandon Text';text-align:start;writing-mode:lr-tb;text-anchor:start;opacity:1;fill:#ffffff;fill-opacity:1;stroke:none;stroke-width:4;stroke-linecap:round;stroke-miterlimit:4;stroke-dasharray:none;stroke-dashoffset:0;stroke-opacity:1"
       id="text4421"
       transform="matrix(1.1560695,0,0,1.1560695,-2.5895974,-160.61048)">
      <path
         d="m 2.2400016,1038.8454 c 0,0.8259 0.657413,1.4751 1.4791793,1.4751 0.8258751,0 1.4832881,-0.6492 1.4832881,-1.4751 0,-0.8217 -0.657413,-1.4833 -1.4832881,-1.4833 -0.8217663,0 -1.4791793,0.6616 -1.4791793,1.4833 z m 0.1807885,0 c 0,-0.719 0.5793453,-1.3025 1.2983908,-1.3025 0.7190455,0 1.3024995,0.5835 1.3024995,1.3025 0,0.7191 -0.583454,1.2943 -1.3024995,1.2943 -0.7190455,0 -1.2983908,-0.5752 -1.2983908,-1.2943 z"
         style="font-style:normal;font-variant:normal;font-weight:300;font-stretch:normal;font-family:'Brandon Grotesque';-inkscape-font-specification:'Brandon Grotesque Light';fill:#000000"
         id="path4426"
         inkscape:connector-curvature="0" />
      <path
         d="m 5.8392738,1039.2317 c 0,0.6286 0.4232096,1.0888 1.072405,1.0888 0.6533042,0 1.0806226,-0.4602 1.0806226,-1.0888 l 0,-1.775 c 0,-0.029 -0.024653,-0.053 -0.053415,-0.053 l -0.082177,0 c -0.041088,0 -0.057524,0.021 -0.057524,0.053 l 0,1.7585 c 0,0.5301 -0.3369242,0.9163 -0.8875076,0.9163 -0.5464746,0 -0.8792899,-0.3903 -0.8792899,-0.9204 l 0,-1.7544 c 0,-0.029 -0.024653,-0.053 -0.053415,-0.053 l -0.086286,0 c -0.028762,0 -0.053415,0.025 -0.053415,0.053 l 0,1.775 z"
         style="font-style:normal;font-variant:normal;font-weight:300;font-stretch:normal;font-family:'Brandon Grotesque';-inkscape-font-specification:'Brandon Grotesque Light';fill:#000000"
         id="path4428"
         inkscape:connector-curvature="0" />
      <path
         d="m 9.2689283,1040.226 c 0,0.029 0.024653,0.053 0.053415,0.053 l 0.073959,0 c 0.041088,0 0.065741,-0.025 0.065741,-0.053 l 0,-2.6461 0.7888957,0 c 0.03287,0 0.05341,-0.025 0.05341,-0.053 l 0,-0.07 c 0,-0.029 -0.02054,-0.053 -0.05341,-0.053 l -1.7667975,0 c -0.028762,0 -0.053415,0.021 -0.053415,0.053 l 0,0.062 c 0,0.037 0.012327,0.062 0.053415,0.062 l 0.7847868,0 0,2.6461 z"
         style="font-style:normal;font-variant:normal;font-weight:300;font-stretch:normal;font-family:'Brandon Grotesque';-inkscape-font-specification:'Brandon Grotesque Light';fill:#000000"
         id="path4430"
         inkscape:connector-curvature="0" />
      <path
         d="m 10.775457,1040.226 c 0,0.029 0.02465,0.053 0.05342,0.053 l 1.647642,0 c 0.02876,0 0.05341,-0.025 0.05341,-0.053 l 0,-0.066 c 0,-0.029 -0.02465,-0.053 -0.05341,-0.053 l -1.503833,0 0,-1.2162 1.3025,0 c 0.02876,0 0.05341,-0.025 0.05341,-0.053 l 0,-0.07 c 0,-0.029 -0.02465,-0.053 -0.05341,-0.053 l -1.3025,0 0,-1.1341 1.503833,0 c 0.02876,0 0.05341,-0.025 0.05341,-0.053 l 0,-0.07 c 0,-0.029 -0.02465,-0.053 -0.05341,-0.053 l -1.647642,0 c -0.02876,0 -0.05342,0.025 -0.05342,0.053 l 0,2.7693 z"
         style="font-style:normal;font-variant:normal;font-weight:300;font-stretch:normal;font-family:'Brandon Grotesque';-inkscape-font-specification:'Brandon Grotesque Light';fill:#000000"
         id="path4432"
         inkscape:connector-curvature="0" />
      <path
         d="m 13.231126,1040.226 c 0,0.029 0.02465,0.053 0.05342,0.053 l 0.07396,0 c 0.04109,0 0.06574,-0.025 0.06574,-0.053 l 0,-1.056 0.756025,0 c 0.05342,0 0.09861,0 0.152027,0 l 0.59578,1.0765 c 0.01233,0.025 0.02876,0.037 0.05752,0.037 l 0.127374,0 c 0.04109,0 0.04931,-0.041 0.02876,-0.074 l -0.599889,-1.0642 c 0.390339,-0.111 0.677957,-0.4438 0.677957,-0.8588 0,-0.5013 -0.414992,-0.8793 -0.916269,-0.8793 l -1.01899,0 c -0.03287,0 -0.05342,0.025 -0.05342,0.053 l 0,2.7693 z m 0.197224,-1.2285 0,-1.4053 0.862854,0 c 0.398557,0 0.731372,0.3 0.731372,0.6903 0,0.4068 -0.332815,0.715 -0.727263,0.715 l -0.866963,0 z"
         style="font-style:normal;font-variant:normal;font-weight:300;font-stretch:normal;font-family:'Brandon Grotesque';-inkscape-font-specification:'Brandon Grotesque Light';fill:#000000"
         id="path4434"
         inkscape:connector-curvature="0" />
      <path
         d="m 15.903471,1040.226 c 0,0.029 0.02465,0.053 0.05342,0.053 l 0.07807,0 c 0.02876,0 0.05341,-0.025 0.05341,-0.053 l 0,-2.4982 c 0,0 0.0041,0 0.0041,0 1.951695,2.5804 1.984566,2.5927 1.988675,2.5927 l 0.05341,0 c 0.03287,0 0.06574,-0.016 0.06574,-0.053 l 0,-2.8104 c 0,-0.029 -0.02465,-0.053 -0.05342,-0.053 l -0.08218,0 c -0.02876,0 -0.05342,0.025 -0.05342,0.053 l 0,2.4735 c 0,0 0,0 -0.0041,0 l -1.972239,-2.5681 -0.06985,0 c -0.03287,0 -0.06163,0.021 -0.06163,0.053 l 0,2.8104 z"
         style="font-style:normal;font-variant:normal;font-weight:300;font-stretch:normal;font-family:'Brandon Grotesque';-inkscape-font-specification:'Brandon Grotesque Light';fill:#000000"
         id="path4436"
         inkscape:connector-curvature="0" />
      <path
         d="m 19.073371,1040.226 c 0,0.029 0.02465,0.053 0.05341,0.053 l 1.647641,0 c 0.02876,0 0.05342,-0.025 0.05342,-0.053 l 0,-0.066 c 0,-0.029 -0.02465,-0.053 -0.05342,-0.053 l -1.503832,0 0,-1.2162 1.302499,0 c 0.02876,0 0.05341,-0.025 0.05341,-0.053 l 0,-0.07 c 0,-0.029 -0.02465,-0.053 -0.05341,-0.053 l -1.302499,0 0,-1.1341 1.503832,0 c 0.02876,0 0.05342,-0.025 0.05342,-0.053 l 0,-0.07 c 0,-0.029 -0.02465,-0.053 -0.05342,-0.053 l -1.647641,0 c -0.02876,0 -0.05341,0.025 -0.05341,0.053 l 0,2.7693 z"
         style="font-style:normal;font-variant:normal;font-weight:300;font-stretch:normal;font-family:'Brandon Grotesque';-inkscape-font-specification:'Brandon Grotesque Light';fill:#000000"
         id="path4438"
         inkscape:connector-curvature="0" />
      <path
         d="m 21.964575,1040.226 c 0,0.029 0.02465,0.053 0.05341,0.053 l 0.07396,0 c 0.04109,0 0.06574,-0.025 0.06574,-0.053 l 0,-2.6461 0.788895,0 c 0.03287,0 0.05342,-0.025 0.05342,-0.053 l 0,-0.07 c 0,-0.029 -0.02054,-0.053 -0.05342,-0.053 l -1.766797,0 c -0.02876,0 -0.05341,0.021 -0.05341,0.053 l 0,0.062 c 0,0.037 0.01233,0.062 0.05341,0.062 l 0.784787,0 0,2.6461 z"
         style="font-style:normal;font-variant:normal;font-weight:300;font-stretch:normal;font-family:'Brandon Grotesque';-inkscape-font-specification:'Brandon Grotesque Light';fill:#000000"
         id="path4440"
         inkscape:connector-curvature="0" />
    </g>
  </g>
</svg>
