<?xml version="1.0" encoding="UTF-8" standalone="no"?>
<!-- Created with Inkscape (http://www.inkscape.org/) -->

<svg
   xmlns:dc="http://purl.org/dc/elements/1.1/"
   xmlns:cc="http://creativecommons.org/ns#"
   xmlns:rdf="http://www.w3.org/1999/02/22-rdf-syntax-ns#"
   xmlns:svg="http://www.w3.org/2000/svg"
   xmlns="http://www.w3.org/2000/svg"
   xmlns:sodipodi="http://sodipodi.sourceforge.net/DTD/sodipodi-0.dtd"
   xmlns:inkscape="http://www.inkscape.org/namespaces/inkscape"
   width="24"
   height="24"
   viewBox="0 0 24 24"
   id="svg2"
   version="1.1"
   inkscape:version="0.91 r13725"
   sodipodi:docname="video-hd.svg">
  <defs
     id="defs4" />
  <sodipodi:namedview
     id="base"
     pagecolor="#ffffff"
     bordercolor="#666666"
     borderopacity="1.0"
     inkscape:pageopacity="0.0"
     inkscape:pageshadow="2"
     inkscape:zoom="45.254833"
     inkscape:cx="15.376942"
     inkscape:cy="10.221038"
     inkscape:document-units="px"
     inkscape:current-layer="layer1"
     showgrid="true"
     units="px"
     showguides="true"
     inkscape:guide-bbox="true"
     inkscape:window-width="3188"
     inkscape:window-height="1708"
     inkscape:window-x="0"
     inkscape:window-y="36"
     inkscape:window-maximized="0"
     inkscape:object-nodes="true"
     inkscape:snap-intersection-paths="true"
     inkscape:object-paths="true"
     inkscape:snap-bbox="true"
     inkscape:bbox-nodes="true"
     inkscape:bbox-paths="true"
     inkscape:snap-global="true"
     inkscape:snap-grids="true"
     inkscape:snap-others="true"
     inkscape:snap-nodes="true"
     inkscape:snap-bbox-midpoints="true"
     inkscape:snap-bbox-edge-midpoints="true">
    <inkscape:grid
       type="xygrid"
       id="grid4136"
       empspacing="4"
       dotted="false" />
    <sodipodi:guide
       position="2,12"
       orientation="1,0"
       id="guide4138" />
    <sodipodi:guide
       position="22,12"
       orientation="1,0"
       id="guide4140" />
    <sodipodi:guide
       position="21,22"
       orientation="0,1"
       id="guide4142" />
    <sodipodi:guide
       position="21,2"
       orientation="0,1"
       id="guide4144" />
    <sodipodi:guide
       position="13,13"
       orientation="-0.70710678,0.70710678"
       id="guide4146"
       inkscape:label=""
       inkscape:color="rgb(197,197,222)" />
    <sodipodi:guide
       position="20,4"
       orientation="0.70710678,0.70710678"
       id="guide4148"
       inkscape:label=""
       inkscape:color="rgb(197,197,222)" />
    <sodipodi:guide
       position="12,12"
       orientation="1,0"
       id="guide4150"
       inkscape:label=""
       inkscape:color="rgb(197,197,222)" />
    <sodipodi:guide
       position="13,12"
       orientation="0,1"
       id="guide4152"
       inkscape:label=""
       inkscape:color="rgb(197,197,222)" />
    <sodipodi:guide
       position="4,11"
       orientation="1,0"
       id="guide4247"
       inkscape:label=""
       inkscape:color="rgb(163,192,115)" />
    <sodipodi:guide
       position="20,3"
       orientation="1,0"
       id="guide4249"
       inkscape:label=""
       inkscape:color="rgb(163,192,115)" />
    <sodipodi:guide
       position="10,20"
       orientation="1.2246468e-16,-1"
       id="guide4251"
       inkscape:label=""
       inkscape:color="rgb(163,192,115)" />
    <sodipodi:guide
       position="8,4"
       orientation="0,1"
       id="guide4253"
       inkscape:label=""
       inkscape:color="rgb(163,192,115)" />
    <sodipodi:guide
       position="8.0433396,14.937631"
       orientation="1,0"
       id="guide4255"
       inkscape:label=""
       inkscape:color="rgb(197,197,222)" />
    <sodipodi:guide
       position="16,14"
       orientation="1,0"
       id="guide4257"
       inkscape:label=""
       inkscape:color="rgb(197,197,222)" />
    <sodipodi:guide
       position="16,16"
       orientation="0,1"
       id="guide4259"
       inkscape:label=""
       inkscape:color="rgb(197,197,222)" />
    <sodipodi:guide
       position="18,8"
       orientation="0,1"
       id="guide4261"
       inkscape:label=""
       inkscape:color="rgb(197,197,222)" />
  </sodipodi:namedview>
  <metadata
     id="metadata7">
    <rdf:RDF>
      <cc:Work
         rdf:about="">
        <dc:format>image/svg+xml</dc:format>
        <dc:type
           rdf:resource="http://purl.org/dc/dcmitype/StillImage" />
        <dc:title></dc:title>
      </cc:Work>
    </rdf:RDF>
  </metadata>
  <g
     inkscape:label="Layer 1"
     inkscape:groupmode="layer"
     id="layer1"
     transform="translate(0,-1028.3622)">
    <path
       style="fill:#000000;fill-opacity:1;stroke:none;stroke-opacity:1"
       d="M 4 4 C 2.892 4 2 4.892 2 6 L 2 18 C 2 19.108 2.892 20 4 20 L 20 20 C 21.108 20 22 19.108 22 18 L 22 6 C 22 4.892 21.108 4 20 4 L 4 4 z M 5.1582031 7.5644531 L 6.9804688 7.5644531 L 6.265625 10.990234 L 9.6972656 10.990234 L 10.417969 7.5644531 L 12.238281 7.5644531 L 10.386719 16.435547 L 8.5605469 16.435547 L 9.3886719 12.472656 L 5.9570312 12.472656 L 5.1289062 16.435547 L 3.3007812 16.435547 L 5.1582031 7.5644531 z M 14.115234 7.5644531 L 16.505859 7.5644531 C 17.171547 7.5644531 17.597618 7.57375 17.783203 7.59375 C 18.15034 7.62975 18.477225 7.7050927 18.763672 7.8183594 C 19.054153 7.9312927 19.314829 8.091075 19.548828 8.296875 C 19.786862 8.4985417 19.990708 8.740877 20.160156 9.0273438 C 20.333638 9.3138104 20.467754 9.6462848 20.560547 10.021484 C 20.65334 10.392618 20.699219 10.800341 20.699219 11.244141 C 20.699219 12.200341 20.515574 13.048682 20.148438 13.791016 C 19.785335 14.529349 19.328113 15.117068 18.775391 15.552734 C 18.351771 15.891668 17.804488 16.141334 17.134766 16.302734 C 16.755526 16.391468 16.173441 16.435547 15.386719 16.435547 L 12.257812 16.435547 L 14.115234 7.5644531 z M 15.628906 9.0292969 L 14.380859 15.007812 L 15.306641 15.007812 C 15.976363 15.007813 16.461215 14.967385 16.759766 14.886719 C 17.062351 14.801985 17.337753 14.645855 17.587891 14.419922 C 17.946959 14.093122 18.249991 13.657948 18.496094 13.113281 C 18.742196 12.568615 18.865234 11.92772 18.865234 11.189453 C 18.865234 10.560053 18.762399 10.088104 18.556641 9.7734375 C 18.354917 9.4547042 18.105191 9.241652 17.806641 9.1367188 C 17.596849 9.0641188 17.224085 9.0292969 16.6875 9.0292969 L 15.628906 9.0292969 z "
       transform="translate(0,1028.3622)"
       id="rect4159" />
  </g>
</svg>
