<?xml version="1.0" encoding="UTF-8" standalone="no"?>
<!-- Created with Inkscape (http://www.inkscape.org/) -->

<svg
   xmlns:dc="http://purl.org/dc/elements/1.1/"
   xmlns:cc="http://creativecommons.org/ns#"
   xmlns:rdf="http://www.w3.org/1999/02/22-rdf-syntax-ns#"
   xmlns:svg="http://www.w3.org/2000/svg"
   xmlns="http://www.w3.org/2000/svg"
   xmlns:sodipodi="http://sodipodi.sourceforge.net/DTD/sodipodi-0.dtd"
   xmlns:inkscape="http://www.inkscape.org/namespaces/inkscape"
   width="24"
   height="24"
   viewBox="0 0 24 24"
   id="svg2"
   version="1.1"
   inkscape:version="0.91 r13725"
   sodipodi:docname="wifi.svg">
  <defs
     id="defs4" />
  <sodipodi:namedview
     id="base"
     pagecolor="#ffffff"
     bordercolor="#666666"
     borderopacity="1.0"
     inkscape:pageopacity="0.0"
     inkscape:pageshadow="2"
     inkscape:zoom="16"
     inkscape:cx="18.126693"
     inkscape:cy="5.3145114"
     inkscape:document-units="px"
     inkscape:current-layer="layer1"
     showgrid="true"
     units="px"
     showguides="true"
     inkscape:guide-bbox="true"
     inkscape:window-width="1920"
     inkscape:window-height="1007"
     inkscape:window-x="0"
     inkscape:window-y="0"
     inkscape:window-maximized="1"
     inkscape:object-nodes="true"
     inkscape:snap-intersection-paths="true"
     inkscape:object-paths="true"
     inkscape:snap-bbox="true"
     inkscape:bbox-nodes="true"
     inkscape:bbox-paths="true"
     inkscape:snap-smooth-nodes="true">
    <inkscape:grid
       type="xygrid"
       id="grid4136"
       empspacing="4"
       dotted="true" />
    <sodipodi:guide
       position="2,12"
       orientation="1,0"
       id="guide4138" />
    <sodipodi:guide
       position="22,12"
       orientation="1,0"
       id="guide4140" />
    <sodipodi:guide
       position="21,22"
       orientation="0,1"
       id="guide4142" />
    <sodipodi:guide
       position="21,2"
       orientation="0,1"
       id="guide4144" />
    <sodipodi:guide
       position="13,13"
       orientation="-0.70710678,0.70710678"
       id="guide4146"
       inkscape:label=""
       inkscape:color="rgb(197,197,222)" />
    <sodipodi:guide
       position="12,12"
       orientation="1,0"
       id="guide4150"
       inkscape:label=""
       inkscape:color="rgb(197,197,222)" />
    <sodipodi:guide
       position="12,12"
       orientation="0,1"
       id="guide4152"
       inkscape:label=""
       inkscape:color="rgb(197,197,222)" />
    <sodipodi:guide
       position="4,11"
       orientation="1,0"
       id="guide4247"
       inkscape:label=""
       inkscape:color="rgb(163,192,115)" />
    <sodipodi:guide
       position="20,11"
       orientation="1,0"
       id="guide4249"
       inkscape:label=""
       inkscape:color="rgb(163,192,115)" />
    <sodipodi:guide
       position="10,20"
       orientation="1.2246468e-16,-1"
       id="guide4251"
       inkscape:label=""
       inkscape:color="rgb(163,192,115)" />
    <sodipodi:guide
       position="2,4"
       orientation="0,1"
       id="guide4253"
       inkscape:label=""
       inkscape:color="rgb(163,192,115)" />
    <sodipodi:guide
       position="8,13"
       orientation="1,0"
       id="guide4255"
       inkscape:label=""
       inkscape:color="rgb(197,197,222)" />
    <sodipodi:guide
       position="16,14"
       orientation="1,0"
       id="guide4257"
       inkscape:label=""
       inkscape:color="rgb(197,197,222)" />
    <sodipodi:guide
       position="16,16"
       orientation="0,1"
       id="guide4259"
       inkscape:label=""
       inkscape:color="rgb(197,197,222)" />
    <sodipodi:guide
       position="18,8"
       orientation="0,1"
       id="guide4261"
       inkscape:label=""
       inkscape:color="rgb(197,197,222)" />
  </sodipodi:namedview>
  <metadata
     id="metadata7">
    <rdf:RDF>
      <cc:Work
         rdf:about="">
        <dc:format>image/svg+xml</dc:format>
        <dc:type
           rdf:resource="http://purl.org/dc/dcmitype/StillImage" />
        <dc:title />
      </cc:Work>
    </rdf:RDF>
  </metadata>
  <g
     inkscape:label="Layer 1"
     inkscape:groupmode="layer"
     id="layer1"
     transform="translate(0,-1028.3622)">
    <path
       style="opacity:1;fill:#000000;fill-opacity:1;stroke:none;stroke-width:4;stroke-linecap:round;stroke-miterlimit:4;stroke-dasharray:none;stroke-dashoffset:0;stroke-opacity:1"
       d="m 3.999997,1032.3622 0,2.6667 a 13.333321,13.333321 0 0 1 13.333336,13.3333 l 2.666667,0 a 15.999988,15.999988 0 0 0 -16.000003,-16 z m 0,6.2222 0,2.6667 a 7.1110972,7.1110972 0 0 1 7.111112,7.1111 l 2.666668,0 a 9.7777645,9.7777645 0 0 0 -9.77778,-9.7778 z m 0,6.2222 0,2.6667 a 0.88888906,0.88888906 0 0 0 0.00174,0.062 0.88888906,0.88888906 0 0 0 0.010417,0.089 0.88888906,0.88888906 0 0 0 0.020833,0.087 0.88888906,0.88888906 0 0 0 0.027778,0.085 0.88888906,0.88888906 0 0 0 0.036458,0.08 0.88888906,0.88888906 0 0 0 0.043403,0.078 0.88888906,0.88888906 0 0 0 0.052083,0.071 0.88888906,0.88888906 0 0 0 0.059028,0.068 0.88888906,0.88888906 0 0 0 0.064236,0.061 0.88888906,0.88888906 0 0 0 0.071181,0.054 0.88888906,0.88888906 0 0 0 0.076389,0.045 0.88888906,0.88888906 0 0 0 0.079861,0.04 0.88888906,0.88888906 0 0 0 0.083333,0.03 0.88888906,0.88888906 0 0 0 0.085069,0.023 0.88888906,0.88888906 0 0 0 0.088542,0.012 0.88888906,0.88888906 0 0 0 0.088542,0.01 l 2.6666672,0 a 3.5555562,3.5555562 0 0 0 -3.5555562,-3.5556 z"
       id="path13428"
       inkscape:connector-curvature="0" />
  </g>
</svg>
